<svg id="Layer_1" height="512" viewBox="0 0 512 512" width="512" xmlns="http://www.w3.org/2000/svg" data-name="Layer 1"><path d="m342.84 405.95h-177.76a28.212 28.212 0 0 0 -28.21 28.22v67.83h234.18v-67.83a28.212 28.212 0 0 0 -28.21-28.22z" fill="#73d88a"/><path d="m195.08 405.95h-30a28.212 28.212 0 0 0 -28.21 28.22v67.83h30v-67.83a28.212 28.212 0 0 1 28.21-28.22z" fill="#67a96a"/><path d="m256 10c-110.64 0-200.33 89.95-200.33 200.92a200.963 200.963 0 0 0 109.97 179.36l176.73 1.98a200.987 200.987 0 0 0 113.96-181.34c0-110.97-89.69-200.92-200.33-200.92z" fill="#e5f5fd"/><path d="m95.67 210.92c0-104.2 79.081-189.86 180.33-199.926q-9.869-.981-20-.994c-110.64 0-200.33 89.95-200.33 200.92a200.963 200.963 0 0 0 109.97 179.36h40a200.963 200.963 0 0 1 -109.97-179.36z" fill="#a6b7d0"/><path d="m295.39 328.68h-78.78l-.24.23v81.55l79.26-.24v-81.31z" fill="#efc597"/><path d="m305.7 68.48c81.73 30.37 104.46 140.2 43.12 204.34l-53.43 55.86-25.64 26.82a19.017 19.017 0 0 1 -27.5 0l-25.64-26.82-53.43-55.86c-61.34-64.14-38.61-173.97 43.12-204.34a142.918 142.918 0 0 1 99.4 0z" fill="#ffd8b7"/><path d="m349.54 160.19s5.49 44.89-15.93 68.87-61.52 17.84-61.52 17.84-5.49-44.89 15.93-68.87 61.52-17.84 61.52-17.84z" fill="#5f6a78"/><path d="m223.98 178.03c21.42 23.98 15.93 68.87 15.93 68.87s-40.1 6.13-61.52-17.84-15.93-68.87-15.93-68.87 40.1-6.14 61.52 17.84z" fill="#5f6a78"/><path d="m400.86 102.59a92.318 92.318 0 0 1 9.09 105.2 92.372 92.372 0 0 0 -24.14-91.26 10.3 10.3 0 0 1 2.39-16.56 10.164 10.164 0 0 1 4.68-1.14 10.388 10.388 0 0 1 7.98 3.76z" fill="#e5e5e5"/><path d="m342.37 409.98v-40.42l-.14-.64a153.548 153.548 0 0 1 -20.47 11.69v41.41l.02.05a154.875 154.875 0 0 0 20.73-11.88z" fill="#afbac8"/><path d="m321.76 422.02.02.05a152.387 152.387 0 0 1 -19.69 7.73l-.08-.26v-41.18a150.448 150.448 0 0 0 19.75-7.75z" fill="#818eac"/><path d="m295.63 390.22q3.225-.855 6.38-1.86v41.18l.08.26a151.9 151.9 0 0 1 -18.89 4.66v-41.46q6.3-1.14 12.43-2.78z" fill="#afbac8"/><path d="m283.2 393v41.46a154.588 154.588 0 0 1 -18.78 2.22l-.03-.55v-40.91a155.081 155.081 0 0 0 18.81-2.22z" fill="#818eac"/><path d="m264.39 436.13.03.55c-2.94.17-5.89.25-8.87.25-3.36 0-6.7-.11-10-.32l.03-.48v-40.98c3.29.21 6.62.32 9.97.32 2.97 0 5.91-.08 8.84-.25z" fill="#afbac8"/><path d="m245.58 395.15v40.98l-.03.48a154.207 154.207 0 0 1 -19.86-2.56l.14-.75v-40.69a152.727 152.727 0 0 0 19.75 2.54z" fill="#818eac"/><path d="m225.83 392.61v40.69l-.14.75a152.792 152.792 0 0 1 -19.61-5.21v-40.76l.21-.63q4.965 1.68 10.08 3.01c3.11.82 6.27 1.54 9.46 2.15z" fill="#afbac8"/><path d="m206.29 387.45-.21.63v40.76a151.67 151.67 0 0 1 -19.75-8.24v-41.46a152.843 152.843 0 0 0 19.96 8.31z" fill="#818eac"/><path d="m165.64 366.66v41.25l-.1.14a154.488 154.488 0 0 0 20.79 12.55v-41.46a153.568 153.568 0 0 1 -20.69-12.48z" fill="#afbac8"/><path d="m402.673 233.926a7 7 0 1 1 .289-.006c-.097.004-.193.006-.289.006z" fill="#e5e5e5"/><path d="m256 476a11 11 0 1 1 11-11 11.013 11.013 0 0 1 -11 11z" fill="#4a5160"/><path d="m256 508a11 11 0 1 1 11-11 11.013 11.013 0 0 1 -11 11z" fill="#4a5160"/><g fill="#284268"><path d="m256 486a11 11 0 1 0 11 11 11.013 11.013 0 0 0 -11-11zm0 12a1 1 0 1 1 1-1 1 1 0 0 1 -1 1z"/><path d="m182 474.165v27.835a6 6 0 0 0 12 0v-27.835a6 6 0 1 0 -12 0z"/><path d="m326 502v-25.835a6 6 0 1 0 -12 0v25.835a6 6 0 0 0 12 0z"/><path d="m256 454a11 11 0 1 0 11 11 11.013 11.013 0 0 0 -11-11zm0 12a1 1 0 1 1 1-1 1 1 0 0 1 -1 1z"/><path d="m376.842 106.635a16.484 16.484 0 0 0 4.774 14.18 86.079 86.079 0 0 1 22.762 84.633 6 6 0 0 0 10.472 5.852 98.359 98.359 0 0 0 -9.382-112.56 16.239 16.239 0 0 0 -20.025-4.1 16.047 16.047 0 0 0 -8.601 11.995zm11.867 1.783a4.129 4.129 0 0 1 2.239-3.116 4.218 4.218 0 0 1 1.943-.474 4.386 4.386 0 0 1 3.365 1.6 86.276 86.276 0 0 1 19.877 50.353 98.166 98.166 0 0 0 -26.121-44.544 4.39 4.39 0 0 1 -1.303-3.819z"/><path d="m402.381 219.933a7 7 0 0 0 .292 13.993c.1 0 .192 0 .289-.006a7 7 0 1 0 -.581-13.987z"/><path d="m271.179 252.827a89.014 89.014 0 0 0 12.528.8c14.6 0 38.679-3 54.375-20.569 22.966-25.708 17.654-71.649 17.417-73.592a6 6 0 0 0 -5.048-5.2c-1.769-.272-43.585-6.331-66.9 19.773-22.966 25.708-17.654 71.648-17.417 73.592a6 6 0 0 0 5.045 5.196zm21.318-70.8c14.913-16.693 40.892-17 51.469-16.341.654 11.68.667 42.023-14.834 59.375-14.911 16.691-40.887 17-51.461 16.342-.641-11.695-.627-42.078 14.829-59.377z"/><path d="m245.869 247.624c.237-1.944 5.549-47.884-17.417-73.592-23.319-26.1-65.134-20.044-66.9-19.773a6 6 0 0 0 -5.048 5.2c-.237 1.943-5.549 47.884 17.417 73.592 15.7 17.571 39.773 20.569 54.375 20.569a89.223 89.223 0 0 0 12.528-.8 6 6 0 0 0 5.045-5.196zm-11.54-6.223c-10.581.655-36.554.347-51.461-16.341-15.455-17.3-15.467-47.685-14.827-59.375 10.581-.655 36.554-.347 51.462 16.341 15.454 17.3 15.467 47.685 14.826 59.374z"/><path d="m263.524 321a6 6 0 0 0 0-12h-15.048a6 6 0 0 0 0 12z"/><path d="m190.316 116.127a5.978 5.978 0 0 0 3.8-1.358 109.683 109.683 0 0 1 23.012-14.482c2.641-1.236 5.378-2.388 8.133-3.423a6 6 0 0 0 -4.22-11.233c-3.048 1.144-6.076 2.419-9 3.788a121.77 121.77 0 0 0 -25.53 16.066 6 6 0 0 0 3.806 10.642z"/><path d="m167.334 135.125a6 6 0 0 0 8.4-1.181c1.718-2.281 3.54-4.519 5.415-6.651a6 6 0 1 0 -9.011-7.924c-2.074 2.359-4.089 4.833-5.989 7.354a6 6 0 0 0 1.185 8.402z"/><path d="m255.954 4c-113.768 0-206.3 92.823-206.3 206.918a207.2 207.2 0 0 0 110.346 182.982v6.492a33.831 33.831 0 0 0 -29 33.777v67.831a6 6 0 0 0 12 0v-67.835a22.188 22.188 0 0 1 18.356-21.884 5.667 5.667 0 0 0 .721.649 160.683 160.683 0 0 0 183.813 2.221 5.876 5.876 0 0 0 2.092-2.588 22.223 22.223 0 0 1 17.018 21.602v67.835a6 6 0 0 0 12 0v-67.835a33.866 33.866 0 0 0 -29-33.765v-4.444a206.891 206.891 0 0 0 114.234-185.038c0-114.095-92.511-206.918-206.28-206.918zm-75.954 406.512a42.415 42.415 0 0 1 -8-5.51v-27.159a42.928 42.928 0 0 0 8 4.957zm20 9.724c-3-1.052-5-2.184-8-3.388v-28.3c3 1.1 5 2.125 8 3.085zm20 6.365c-3-.641-5-1.337-8-2.118v-28.951c3 .718 5 1.353 8 1.943zm-52.488-157.929c-28.137-29.422-39.364-71.225-30.03-111.824a120.278 120.278 0 0 1 24.4-49.8 109.217 109.217 0 0 1 46.511-32.948 136.965 136.965 0 0 1 95.214 0 109.217 109.217 0 0 1 46.513 32.951 120.278 120.278 0 0 1 24.4 49.8c9.334 40.6-1.893 82.4-30.03 111.824l-79.075 82.683a13.026 13.026 0 0 1 -18.826 0zm54.488 74.728 15.728 16.25a25.181 25.181 0 0 0 18.179 7.9 24.682 24.682 0 0 0 18.132-7.55h.21l15.751-16.6v42.038a149.612 149.612 0 0 1 -68 .241zm18 86.677c-3-.276-6-.626-8-1.037v-29.32c2 .38 5 .706 8 .961zm18 .807c-1 .018-1.486.051-2.434.051-1.327 0-2.566-.039-3.566-.074v-29.456c1 .032 2.239.067 3.566.067.948 0 1.434-.03 2.434-.046zm19-1.518c-2 .329-4 .594-7 .82v-29.406c3-.209 5-.457 7-.761zm19-4.024c-2 .636-5 1.219-7 1.747v-29.168c2-.487 5-1.02 7-1.606zm20-7.129c-3 1.135-5 2.214-8 3.2v-28.708c3-.9 5-1.882 8-2.918zm20-11.144a42.343 42.343 0 0 1 -8 5.167v-27.882a43.207 43.207 0 0 0 8-4.66zm83.389-90.87a194.513 194.513 0 0 1 -71.389 66.225v-12.865a6.058 6.058 0 0 0 .048-1.266l-.047-.64a5.936 5.936 0 0 0 -9.162-3.7 148.035 148.035 0 0 1 -36.839 18.087v-51.189l51.347-53.885c30.938-32.35 43.2-78.259 32.959-122.807-9.785-42.562-39.2-76.695-78.519-91.307a148.973 148.973 0 0 0 -103.574 0c-39.323 14.612-68.641 48.745-78.426 91.307-10.241 44.548 1.928 90.457 32.866 122.807l51.347 53.885v51.517a147.982 147.982 0 0 1 -39.823-19.839 6 6 0 0 0 -9.426.44l.08.142c-.983 1.38-1.831 3.034-.831 4.577v12.5a194.829 194.829 0 0 1 -98.235-169.27c0-107.478 87.084-194.918 194.235-194.918s194.326 87.44 194.326 194.918a194.845 194.845 0 0 1 -30.937 105.282z"/></g></svg>