<svg width="500" height="150" xmlns="http://www.w3.org/2000/svg" xmlns:xlink="http://www.w3.org/1999/xlink"><defs><path id="a" d="M3.572 20.595c-4.858 13.383.535 27.963 1.975 31.11-7.354 11.475-6.092 25.84-3.046 37.662s10.137 23.746 19.506 30.262c14.043 9.767 35.542 8.926 35.542 8.926v2.123s-3.848 1.4-9.487 7.234c-4.286 4.434-7.24 4.563-10.116 3.321-2.414-1.042-2.037-4.44-2.43-10.276-.286-4.234-5.355-2.402-7.092 1.95-3.35 8.388-.162 16.054 6.47 19.015 10.746 4.797 22.655-7.428 22.655-7.428s1.412 8.811-1.1 11.553c-2.487 2.715-6.065 2.19-9.592-1.136-1.966-1.854-4.783-.292-4.407 2.377.715 5.091 4.445 9.938 10.53 9.938 7.479 0 15.306-4.102 14.937-14.676-.607-17.366 1.578-18.477 1.578-18.477s.833 6.869 4.005 19.226c2.196 8.55-4.629 12.59-9.599 14.315-4.2 1.457-6.557 5.28-1.307 6.47 8.236 1.869 15.048-.43 19.871-8.653 4.093-6.975 1.9-11.284-.587-23.327-1.035-5.015-1.14-10.242-1.14-10.242l1.727-.14s-.282 3.285 2.595 14.221c2.33 8.858 3.573 16.398-.71 24.876-1.494 2.958-9.24 8.487-4.786 9.62 4.693 1.194 11.293-.345 15.305-7.142 5.263-8.916 3.516-16.295.683-28.803-1.85-8.17-1.807-12.665-1.807-12.665s4.39 1.962 4.899 7.217c.843 8.687 2.914 15.865 8.927 19.105 8.652 4.662 14.926 1.901 17.66-2.104 1.894-2.777 2.134-8.775-.272-10.104-1.824-1.008-3.691 4.642-6.875 5.12-4.22.631-8.746-1.283-8.746-13.15 0-11.174-5.666-17.056-5.666-17.056s30.515-7.755 36.772-29.505c3.474-12.074 3.105-26.533-1.355-41.528-4.29-14.424-14.773-21.8-14.773-21.8s.577-14.52-8.636-27.186c-12.26-4.049-29.032 12.058-31.33 13.944-24.817-1.18-45.636 8.827-45.636 8.827S15.508 12.394 3.572 20.595z"/><mask id="b" fill="#fff"><use width="100%" height="100%" xlink:href="#a"/></mask></defs><path fill="none" d="M.741.986h500v150h-500z"/><g transform="matrix(.87376 0 0 .72316 10.557 8.21)"><path d="M157.47 184.43c-1.49-1.558-1.015-1.484-2.306-4.688-10.16-25.215-23.277-35.379-41.953-27.434-14.545 6.188-24.871-5.216-31.855-29.746-2.44-8.571-4.251-18.089-5.52-27.82a186.5 210.28 0 01-1.06-9.652 133.31 150.31 0 01-.22-2.72 59.137 66.677 0 01-.063-.943l-.158-2.741-4.864.357.159 2.742a172.032 172.032 0 00.296 3.85c.267 3.016.626 6.348 1.089 9.905 1.304 10.008 3.168 19.808 5.7 28.702 3.412 11.984 7.786 21.42 13.335 27.547 6.841 7.556 15.239 9.764 24.88 5.66 16.028-6.818 27.478 2.54 38.615 23.037 1.791 3.297 3.085 4.334 3.924 3.943z" fill="#3d464f"/><use transform="rotate(32 60.281 84.281)" width="100%" height="100%" fill="#78af9f" fill-rule="evenodd" xlink:href="#a"/><path transform="rotate(32 60.281 84.281)" d="M37.318 127.79s-4.153-.871-5.242 1.163c5.155-.845-1.4 12.464 8.517 12.792.436-5.279-3.275-13.954-3.275-13.954zm19.999 13.588c-.308 3.58 0 5.762 0 5.762L52 151.474l-12.72 3.152-9.022-1.414-2.058-5.574s5.33 5.778 14.51 3.255c9.18-2.524 11.945-5.935 14.607-9.515zm12.264-7.265c-.43 5.497 0 11.248 0 11.248l.7 4.322.27 6.832-4.876 8.352-10.132 4.062-16.425-2.214 2.758-7.791s5.357 8.645 13.667 5.497 10.179-7.53 9.41-16.224 1.096-12.841 4.628-14.084zm10.944-2.11c.64.342 1.426.901 1.426.901l3.403 19.748.566 12.079-6.559 7.174-11.153 6.437-13.029-3.858 3.342-5.14s.585 5.888 11.688 3.14c11.103-2.747 13.77-9.828 13-18.522-.768-8.694-4.09-14.295-2.684-21.959zm13.05.074c1.238 2.367 2.784 5.973 2.784 5.973l6.644 36.23-21.14 12.397-11.361-7.257 8.011-6.018s-3.536 9.76 6.504 4.667c10.041-5.093 12.11-10.783 11.342-19.477s-2.783-17.356-2.783-26.515zm5.557 15.385l7.907 29.832 31.766-19.835-10.987-20.403-7.02 9.1s4.798-2.085 4.275 4.588c-.524 6.672-7.53 8.452-13.67 7.7-7.395-.906-12.271-10.982-12.271-10.982zM115.884.962l25.496-2.92 11.426 115.86s-27.937 12.425-39.406 35.475c-10.533-1.693 2.506-28.551-23.165-24.184-10.154 1.727-16.47 2.424-22.845 3.205-7.043.862-8.907 3.115-10.731 4.696-1.527-1.581-3.852-.768-3.852-.768s-29.09-6.521-37.695-12.816c11.037 0 6.77.961 18.394 0 6.702 3.711 21.6 6.832 49.471 1.167 27.87-5.665 44.478-11.34 47.869-27.14 5.238-24.409-10.973-35.48-10.973-35.48s-2.278-17.5-17.006-24.454c19.256-8.88 13.017-32.64 13.017-32.64zM.214 20.994l24.09-15.738 14.423 18.657s4.783 10.01-6.555 18.268C31.681 15.237.214 20.994.214 20.994zm85.018-10.06s-6.903 13.415 12.984 21.369c-19.218-5.269-14.758-14.356-19.317-15.878-5.517-1.843-11.237-3.366-11.898-5.491 9.12-3.705 18.23 0 18.23 0z" fill-rule="evenodd" mask="url(#b)" opacity=".224"/><path d="M36.358 138.75c.04.458.213 1.169.606 2.007.86 1.83 2.398 3.383 4.771 4.37 1.8.752 3.47 1.052 4.99.993 1.397-.053 2.401-.375 2.969-.702l-.756-1.312a3.118 3.118 0 01-.53.212 6.498 6.498 0 01-1.74.29c-1.3.05-2.752-.212-4.349-.878-2.013-.838-3.28-2.116-3.984-3.617a5.892 5.892 0 01-.396-1.11 3.13 3.13 0 01-.074-.391z" opacity=".327"/><path d="M24.188 135.29c.046.279.223.682.594 1.176.782 1.039 2.188 2.14 4.38 3.256 1.892.963 3.71 1.281 5.393 1.1 1.217-.132 2.116-.477 2.636-.797l-.794-1.29a3.288 3.288 0 01-.486.224 6.058 6.058 0 01-1.518.357c-1.394.15-2.917-.115-4.544-.944-2-1.019-3.225-1.979-3.858-2.817-.227-.303-.305-.48-.31-.515zm24.417 9.281c.041.457.214 1.168.607 2.007.859 1.83 2.398 3.382 4.77 4.371 1.8.75 3.47 1.05 4.99.993 1.397-.054 2.402-.376 2.97-.703l-.756-1.312a3.118 3.118 0 01-.53.211 6.53 6.53 0 01-1.741.29c-1.299.05-2.752-.212-4.349-.877-2.013-.838-3.279-2.116-3.984-3.617a5.892 5.892 0 01-.395-1.11 3.13 3.13 0 01-.075-.391zm11.891 8.346c.041.458.213 1.168.607 2.008.858 1.83 2.397 3.382 4.77 4.371 1.8.75 3.471 1.05 4.99.993 1.397-.054 2.402-.376 2.969-.704l-.755-1.311a3.118 3.118 0 01-.53.21 6.517 6.517 0 01-1.74.29c-1.3.05-2.753-.211-4.35-.877-2.012-.837-3.28-2.116-3.984-3.616a5.892 5.892 0 01-.395-1.11 3.13 3.13 0 01-.075-.392z" opacity=".327"/><path d="M59.07 155.69c.041.459.213 1.17.607 2.008.858 1.83 2.397 3.382 4.77 4.371 1.8.75 3.471 1.05 4.99.993 1.397-.054 2.402-.376 2.969-.704l-.755-1.311a3.118 3.118 0 01-.53.21 6.522 6.522 0 01-1.741.292c-1.3.049-2.752-.213-4.35-.879-2.011-.837-3.279-2.115-3.983-3.616a5.892 5.892 0 01-.395-1.11 3.13 3.13 0 01-.074-.39l-1.509.137zm18.678 25.126c.085-.06.205-.162.349-.306 1.118-1.113 1.741-2.788 1.256-4.99a8.315 8.315 0 00-.337-1.13c-.937-2.498-2.483-3.744-4.172-4.077a3.176 3.176 0 00-.743-.068l.08 1.512c.049-.003.18.004.37.043 1.187.232 2.3 1.13 3.048 3.124.119.319.21.627.276.923.363 1.652-.07 2.818-.846 3.592a1.604 1.604 0 01-.162.146l.882 1.232zm-45.415-11.197a3.57 3.57 0 00-.636.416c-1.52 1.204-2.372 3.192-1.846 6.016.55 2.952 2.06 4.528 3.834 5.084.214.068.384.104.498.118l.183-1.504a1.69 1.69 0 01-.227-.058c-1.26-.395-2.357-1.54-2.8-3.919-.418-2.242.2-3.68 1.298-4.55.168-.134.295-.211.349-.238z" opacity=".327"/><path d="M29.605 170.05a3.404 3.404 0 00-.607.396c-1.444 1.146-2.256 3.034-1.756 5.712.522 2.8 1.957 4.296 3.643 4.825.205.065.367.1.477.112l.182-1.503a1.483 1.483 0 01-.205-.053c-1.173-.368-2.194-1.434-2.61-3.66-.39-2.096.186-3.435 1.209-4.246.155-.124.272-.194.321-.218zm-6.482-14.095c-.41-.03-1.036.028-1.775.285-1.713.594-3.14 1.991-3.98 4.375-.616 1.743-.696 3.28-.345 4.603.345 1.296.996 2.138 1.57 2.57l.91-1.212a2.246 2.246 0 01-.355-.382 3.819 3.819 0 01-.662-1.366c-.271-1.022-.207-2.249.309-3.71.685-1.945 1.766-3.003 3.049-3.448.307-.107.602-.168.871-.193a2.04 2.04 0 01.292-.011l.117-1.51z" opacity=".327"/><path d="M22.015 155.52c-.525-.226-1.35-.379-2.365-.211-1.354.223-2.652 1-3.792 2.439-1.309 1.65-1.766 3.258-1.577 4.723.096.747.33 1.3.553 1.63l1.254-.85c-.1-.148-.243-.486-.307-.975-.135-1.056.206-2.255 1.263-3.588.908-1.147 1.873-1.723 2.852-1.885.408-.067.79-.057 1.136.006.198.037.33.08.38.101zm-6.292-14.217a3.41 3.41 0 00-.354-.415c-1.308-1.342-3.295-2.069-5.936-1.434a9.757 9.757 0 00-1.002.3c-2.897 1.031-4.35 2.783-4.75 4.708-.073.35-.094.625-.087.803l1.513-.057a2.144 2.144 0 01.055-.439c.297-1.42 1.39-2.74 3.776-3.589a8.4 8.4 0 01.846-.254c2.08-.5 3.542.035 4.5 1.02.107.109.171.187.193.219l1.245-.861z" opacity=".327"/><path d="M15.016 140.27a3.683 3.683 0 00-.42-.903c-.935-1.508-2.623-2.508-5.18-2.481a8.583 8.583 0 00-1.752.19c-2.018.444-3.198 1.55-3.737 2.779-.044.1-.073.18-.09.237l1.448.44.029-.071a2.834 2.834 0 01.67-.913c.487-.456 1.142-.804 2.004-.994a7.144 7.144 0 011.442-.154c2.009-.021 3.213.693 3.879 1.766.148.24.225.426.25.512zm-1.629-24.837c.052-.33.023-.82-.187-1.402-.467-1.297-1.648-2.434-3.7-3.24-1.461-.573-2.766-.777-3.91-.681-1.168.097-1.966.464-2.398.836l.985 1.15c.028-.026.131-.092.31-.174a3.646 3.646 0 011.227-.304c.908-.076 1.982.093 3.233.584 1.662.652 2.517 1.475 2.83 2.343.116.322.13.56.115.654z" opacity=".327"/><path d="M14.764 113.74c.06-.401.04-1.01-.178-1.733-.45-1.496-1.587-2.784-3.56-3.64-1.6-.692-3.032-.828-4.274-.523-1.042.257-1.745.746-2.125 1.184l1.144.991a1.8 1.8 0 01.29-.238 3.15 3.15 0 011.051-.466c.914-.225 2.009-.12 3.311.444 1.563.676 2.391 1.615 2.715 2.686.085.287.127.561.135.81.005.14-.001.233-.006.264zm66.635 67.241c.057-.05.14-.132.24-.246.933-1.063 1.518-2.593 1.244-4.54-.117-.824-.39-1.682-.834-2.57-1.299-2.6-3.097-3.833-4.98-4.073a3.668 3.668 0 00-1.013-.01l.238 1.495c.087-.014.291-.021.58.016 1.394.178 2.751 1.11 3.822 3.25.372.745.595 1.446.689 2.106.206 1.462-.219 2.57-.883 3.326a1.933 1.933 0 01-.107.115zM34.45 141.616c.134.42.433 1.082.944 1.868 1.174 1.806 2.899 3.344 5.272 4.332 1.734.723 3.304 1.053 4.7 1.062 1.391.008 2.364-.278 2.9-.593l-.765-1.305a2.417 2.417 0 01-.463.174 5.78 5.78 0 01-1.661.21c-1.197-.007-2.572-.297-4.128-.945-2.073-.864-3.569-2.197-4.585-3.761a8.358 8.358 0 01-.61-1.105 4.469 4.469 0 01-.162-.398l-1.443.46z" opacity=".327"/><path d="M21.791 136.45c.134.42.433 1.082.944 1.868 1.174 1.806 2.899 3.344 5.271 4.333 1.735.723 3.305 1.053 4.7 1.062 1.392.008 2.364-.278 2.901-.594l-.766-1.304a2.417 2.417 0 01-.462.173 5.78 5.78 0 01-1.662.21c-1.196-.007-2.572-.296-4.128-.944-2.073-.864-3.568-2.198-4.584-3.761a8.358 8.358 0 01-.61-1.106 4.38 4.38 0 01-.162-.398l-1.443.46zm25.126 11.121c.134.42.433 1.082.945 1.869 1.173 1.805 2.899 3.344 5.271 4.332 1.735.723 3.304 1.053 4.7 1.062 1.39.008 2.363-.278 2.9-.594l-.766-1.304a2.417 2.417 0 01-.462.173 5.78 5.78 0 01-1.66.21c-1.198-.008-2.574-.296-4.13-.944-2.073-.864-3.568-2.198-4.584-3.761a8.358 8.358 0 01-.61-1.105 4.381 4.381 0 01-.162-.399l-1.443.46z" opacity=".327"/><g fill-rule="evenodd"><ellipse transform="rotate(32)" cx="77.47" cy="99.349" rx="1.813" ry="1.165" opacity=".332"/><ellipse transform="rotate(70)" cx="117.33" cy="32.763" rx="1.813" ry="1.165" opacity=".332"/><ellipse transform="rotate(104)" cx="110.8" cy="-36.816" rx="1.813" ry="1.165" opacity=".332"/><ellipse transform="rotate(1)" cx="20.655" cy="125.6" rx="1.813" ry="1.165" opacity=".332"/><ellipse transform="rotate(-11)" cx="-.771" cy="127.34" rx="1.813" ry="1.165" opacity=".332"/><ellipse transform="rotate(-11)" cx="4.163" cy="126.98" rx="1.813" ry="1.165" opacity=".332"/><ellipse transform="rotate(21)" cx="127.22" cy="60.203" rx="10.263" ry="14.603" fill="#fff"/><ellipse transform="rotate(21)" cx="127.22" cy="60.203" rx="6.626" ry="9.434"/><ellipse transform="rotate(21)" cx="72.744" cy="57.249" rx="10.263" ry="14.603" fill="#fff"/><ellipse transform="rotate(21)" cx="72.794" cy="56.995" rx="6.626" ry="9.434"/><ellipse transform="rotate(32)" cx="110" cy="50.975" rx="2.598" ry="2.585"/></g><path d="M58.309 105.55a6.628 6.628 0 003.122 5.439 6.625 6.625 0 007.718-.49.774.774 0 00.102-1.093.78.78 0 00-1.096-.107 5.067 5.067 0 01-5.903.374 5.067 5.067 0 01-2.387-4.16.782.782 0 00-.8-.758.773.773 0 00-.756.795z"/><path d="M59.614 122.98c27.941 11.289 51.347 18.568 62.935-10.114 6.818-16.874-10.305-39.705-38.245-50.993-27.941-11.289-56.117-6.762-62.935 10.114-10.616 26.274 10.305 39.705 38.245 50.993z" fill="#ffad19" fill-rule="evenodd" opacity=".772"/><g fill="#fff" fill-rule="evenodd"><path d="M115.57 97.517c3.521 14.519-8.062 27-16.481 28.845C87.5 128.899 78 127.808 50.495 115.851c15.962-9.88 51.379-22.827 65.075-18.334z" opacity=".155"/><path d="M75.871 63.861c6.52 1.35 11.738 4.628 11.738 4.628s-33.206 5.724-62.432 28.49c-2.216-2.604-2.69-6.981-2.69-6.981S39.262 73.424 75.872 63.86z" opacity=".542"/><path d="M56.702 60.167c7.034.054 14.655 1.592 14.655 1.592s-25.245 3.381-48.916 25.03c-.152-3.16 1.08-6.543 1.08-6.543s17.124-15.512 33.181-20.078z" opacity=".542"/></g></g><g transform="matrix(2.4934 0 0 2.875 -323.48 -65.817)" fill="#78af9f" style="shape-inside:url(#rect913);white-space:pre" aria-label="Galaxy"><path d="M215.37 60.395q-2.8.04-4.64-.84-1.84-.92-2.88-2.76-1.04-1.84-1.48-4.68-.44-2.84-.44-6.72 0-3.72.44-6.52.48-2.8 1.6-4.64 1.12-1.88 3.04-2.8 1.96-.92 4.88-.92 1.56 0 3.24.12 1.68.12 3.28.36 1.6.24 2.96.56v2.4q-.8-.12-2.24-.24-1.44-.16-3.24-.24-1.76-.08-3.52-.08-2.88 0-4.48 1.2-1.56 1.16-2.2 3.84-.6 2.64-.6 7 0 3.52.32 5.84.36 2.32 1.16 3.68t2.16 1.96q1.4.56 3.52.56 1.88 0 3.88-.48t3.4-1.04v-8.68h-7.12v-2.36q.76-.12 1.84-.2 1.08-.08 2.28-.12 1.24-.08 2.48-.08 1.04 0 1.96.04.92 0 1.6.12v15.52h-2.32l-.48-2.08q-1.44.72-3.68 1.48-2.2.76-4.72.8zM236.87 60.435q-2.36 0-3.88-1.4t-1.52-3.96v-1.52q0-2.52 1.64-4.08 1.68-1.56 5.04-1.56h7.24v-2.64q0-1.32-.48-2.24-.44-.96-1.64-1.48-1.16-.52-3.4-.52h-6.64v-1.88q1.4-.24 3.24-.44 1.88-.2 4.4-.2 2.6-.04 4.32.64t2.52 2.16q.84 1.44.84 3.8v15.08h-2.44l-.6-2.44q-.16.16-1 .56-.8.4-2.08.92-1.24.48-2.72.84-1.44.36-2.84.36zm1.32-2.36q.72.04 1.64-.16.92-.2 1.88-.44.96-.28 1.76-.56.84-.28 1.36-.48.52-.2.56-.2v-6.72l-6.52.28q-2.28.08-3.28 1.12-.96 1.04-.96 2.68v.96q0 1.28.52 2.08.56.76 1.36 1.08.84.32 1.68.36zM260.1 60.235q-1.84 0-3.08-.64-1.24-.68-1.88-2.16-.64-1.52-.64-4.08v-23.68h3.16v23.28q0 1.92.36 2.92.36.96 1.04 1.36.68.36 1.6.48l2.16.24v2.28zM270.46 60.435q-2.36 0-3.88-1.4t-1.52-3.96v-1.52q0-2.52 1.64-4.08 1.68-1.56 5.04-1.56h7.24v-2.64q0-1.32-.48-2.24-.44-.96-1.64-1.48-1.16-.52-3.4-.52h-6.64v-1.88q1.4-.24 3.24-.44 1.88-.2 4.4-.2 2.6-.04 4.32.64t2.52 2.16q.84 1.44.84 3.8v15.08h-2.44l-.6-2.44q-.16.16-1 .56-.8.4-2.08.92-1.24.48-2.72.84-1.44.36-2.84.36zm1.32-2.36q.72.04 1.64-.16.92-.2 1.88-.44.96-.28 1.76-.56.84-.28 1.36-.48.52-.2.56-.2v-6.72l-6.52.28q-2.28.08-3.28 1.12-.96 1.04-.96 2.68v.96q0 1.28.52 2.08.56.76 1.36 1.08.84.32 1.68.36zM301.22 60.195l-15.28-21.36h3.24l15.32 21.36zm-15.28 0l8.04-11.56 1.2 2.84-6.04 8.72zm10.48-9.72l-1.4-2.52 6.2-9.08 3.28-.04zM314.13 69.675l2.72-9.48q-1-.04-2.08-.48t-2-1.52q-.92-1.08-1.52-3l-5.12-16.36h3.32l4.76 15.68q.44 1.24.92 1.84.52.6 1.04.84t.88.28h.48l5.48-18.64h3.24l-7.8 26.88-1.84 3.96z"/></g></svg>