<?xml version="1.0" encoding="utf-8"?>
<!-- Generator: Adobe Illustrator 22.1.0, SVG Export Plug-In . SVG Version: 6.00 Build 0)  -->
<svg xmlns="http://www.w3.org/2000/svg" xmlns:xlink="http://www.w3.org/1999/xlink" version="1.1" id="Layer_1" x="0px" y="0px" viewBox="0 0 256 256" style="enable-background:new 0 0 256 256;" xml:space="preserve" width="512" height="512">
<style type="text/css">
	.st0{fill:#FFDF74;}
	.st1{fill:#FCE575;}
	.st2{fill:#FFD551;}
	.st3{fill:#F9BB32;}
	.st4{fill:#FFF4C1;}
	.st5{fill:#DB9C2E;}
	.st6{fill:#FFC34C;}
	.st7{fill:#FFEA63;}
	.st8{fill:#A56021;}
	.st9{fill:#E58D23;}
	.st10{fill:#CCC033;}
	.st11{fill:#99AF17;}
	.st12{fill:#FCDA4F;}
	.st13{fill:#8C4C17;}
	.st14{fill:#BF6C0D;}
	.st15{fill:#FFA730;}
	.st16{fill:#FF624B;}
	.st17{fill:#FCF9DE;}
	.st18{fill:#FFEACF;}
	.st19{fill:#FFD59A;}
	.st20{fill:#EACF32;}
	.st21{fill:#FF4B34;}
	.st22{fill:#FF9079;}
	.st23{fill:#FFB74B;}
</style>
<g>
	<g>
		<g>
			<path class="st3" d="M241,184.641H15v-144c0-6.627,5.373-12,12-12h202c6.627,0,12,5.373,12,12V184.641z"/>
		</g>
	</g>
	<g>
		<g>
			<path class="st5" d="M55,28.641H27c-6.627,0-12,5.373-12,12v144h28v-144C43,34.013,48.373,28.641,55,28.641z"/>
		</g>
	</g>
	<g>
		<g>
			<path class="st0" d="M243,206.641H13c-4.418,0-8-3.582-8-8v-10c0-2.209,1.791-4,4-4h238c2.209,0,4,1.791,4,4v10     C251,203.059,247.418,206.641,243,206.641z"/>
		</g>
	</g>
	<g>
		<g>
			<polygon class="st2" points="146,195.782 110,195.782 98,185.186 158,185.186    "/>
		</g>
	</g>
	<g>
		<g>
			<path class="st4" d="M25,166.641v-120c0-4.418,3.582-8,8-8h190c4.418,0,8,3.582,8,8v120c0,4.418-3.582,8-8,8H33     C28.582,174.641,25,171.059,25,166.641z"/>
		</g>
	</g>
	<g>
		<g>
			<path class="st17" d="M223,169.641c-1.657,0-3-1.343-3-3v-120c0-1.657,1.343-3,3-3s3,1.343,3,3v120     C226,168.298,224.657,169.641,223,169.641z"/>
		</g>
	</g>
	<g>
		<g>
			<path class="st0" d="M239.336,218.761l-0.371,0.371c-3.974,3.975-10.401,3.993-14.353,0.039l-72.935-72.952l14.764-14.767     l72.935,72.952C243.328,208.358,243.311,214.785,239.336,218.761z"/>
		</g>
	</g>
	<g>
		<g>
			<path class="st1" d="M33,38.641c-4.418,0-8,3.582-8,8v120c0,4.418,3.582,8,8,8h10v-134c0-0.683,0.07-1.348,0.18-2H33z"/>
		</g>
	</g>
	<g>
		<g>
			<path class="st2" d="M33,198.641v-10c0-2.209,1.791-4,4-4H9c-2.209,0-4,1.791-4,4v10c0,4.418,3.582,8,8,8h28     C36.582,206.641,33,203.059,33,198.641z"/>
		</g>
	</g>
	<g>
		<g>
			<path class="st2" d="M236.612,219.171l-72.935-72.952l8.764-8.766l-6-6.001l-14.764,14.767l72.935,72.952     c3.577,3.578,9.174,3.892,13.152,0.976C237.363,219.851,236.974,219.533,236.612,219.171z"/>
		</g>
	</g>
	<g>
		<g>
			<path class="st14" d="M190.281,192.887l29.53,29.537c6.282,6.284,16.474,6.665,22.851,0.584     c6.569-6.264,6.618-16.752,0.182-23.19l-29.746-29.753c-1.547-1.547-4.044-1.558-5.578-0.023l-17.262,17.266     C188.724,188.842,188.734,191.34,190.281,192.887z"/>
		</g>
	</g>
	<g>
		<g>
			<path class="st22" d="M167.78,68.354c-10.518-10.521-24.525-16.292-39.441-16.252c-14.916,0.041-28.955,5.889-39.531,16.467     c-21.832,21.837-21.928,57.272-0.215,78.991c10.518,10.521,24.526,16.292,39.442,16.252c14.916-0.041,28.954-5.889,39.53-16.467     c10.576-10.578,16.423-24.621,16.463-39.54C184.069,92.885,178.298,78.875,167.78,68.354z M157.555,137.332     c-16.282,16.286-42.704,16.358-58.898,0.16c-16.194-16.198-16.122-42.625,0.16-58.912s42.704-16.358,58.898-0.16     S173.838,121.046,157.555,137.332z"/>
		</g>
	</g>
	<g>
		<g>
			<g>
				<path class="st6" d="M106.643,119.991v-2.132c0-0.922-0.748-1.67-1.67-1.67h-9.691c-0.922,0-1.67-0.748-1.67-1.67v-2.216      c0-0.342,0.105-0.675,0.3-0.955l11.774-16.89c0.312-0.448,0.824-0.715,1.37-0.715h3.949c0.922,0,1.67,0.748,1.67,1.67v13.542      c0,0.922,0.748,1.67,1.67,1.67h0.008c0.922,0,1.67,0.748,1.67,1.67v2.223c0,0.922-0.748,1.67-1.67,1.67h-0.008      c-0.922,0-1.67,0.748-1.67,1.67v2.132c0,0.922-0.748,1.67-1.67,1.67h-2.691C107.39,121.661,106.643,120.913,106.643,119.991z       M106.822,108.955v-1.239c0-1.651-2.141-2.301-3.058-0.928l-0.828,1.239c-0.742,1.11,0.053,2.598,1.388,2.598h0.828      C106.075,110.625,106.822,109.878,106.822,108.955z"/>
			</g>
		</g>
		<g>
			<g>
				<path class="st6" d="M127.766,121.588c-10.357,0-10.357-10.831-10.357-14.39c0-3.523,0-14.247,10.357-14.247      c10.359,0,10.359,10.724,10.359,14.247C138.125,110.757,138.125,121.588,127.766,121.588z M127.766,98.696      c-3.194,0-4.326,2.225-4.326,8.503c0,6.465,1.092,8.646,4.326,8.646c3.195,0,4.328-2.263,4.328-8.646      C132.094,100.92,130.961,98.696,127.766,98.696z"/>
			</g>
		</g>
		<g>
			<g>
				<path class="st6" d="M153.01,119.991v-2.132c0-0.922-0.748-1.67-1.67-1.67h-9.691c-0.922,0-1.67-0.748-1.67-1.67v-2.216      c0-0.342,0.105-0.675,0.3-0.955l11.774-16.89c0.312-0.448,0.824-0.715,1.37-0.715h3.949c0.922,0,1.67,0.748,1.67,1.67v13.542      c0,0.922,0.748,1.67,1.67,1.67h0.008c0.922,0,1.67,0.748,1.67,1.67v2.223c0,0.922-0.748,1.67-1.67,1.67h-0.008      c-0.922,0-1.67,0.748-1.67,1.67v2.132c0,0.922-0.748,1.67-1.67,1.67h-2.691C153.757,121.661,153.01,120.913,153.01,119.991z       M153.189,108.955v-1.239c0-1.651-2.141-2.301-3.058-0.928l-0.828,1.239c-0.742,1.11,0.053,2.598,1.388,2.598h0.828      C152.442,110.625,153.189,109.878,153.189,108.955z"/>
			</g>
		</g>
	</g>
	<g>
		<g>
			<g>
				<path class="st16" d="M102.593,147.559c-21.713-21.719-21.617-57.154,0.215-78.991c8.94-8.941,20.358-14.487,32.684-16.019      c-2.355-0.293-4.74-0.455-7.154-0.448c-14.916,0.041-28.955,5.889-39.531,16.467c-21.832,21.837-21.928,57.272-0.215,78.991      c10.518,10.521,24.526,16.292,39.442,16.252c2.307-0.006,4.59-0.168,6.846-0.448      C122.682,161.844,111.41,156.377,102.593,147.559z"/>
			</g>
		</g>
	</g>
	<g>
		<g>
			<path class="st8" d="M239.811,222.424l-29.53-29.537c-1.547-1.547-1.557-4.045-0.023-5.579l10.039-10.042l-7.199-7.201     c-1.547-1.547-4.044-1.557-5.578-0.023l-17.262,17.267c-1.534,1.534-1.523,4.032,0.023,5.579l29.53,29.537     c5.939,5.94,15.367,6.597,21.767,1.515C240.965,223.475,240.368,222.981,239.811,222.424z"/>
		</g>
	</g>
	<g>
		<g>
			<path class="st17" d="M152.059,87.076c-0.768,0-1.536-0.293-2.121-0.879c-5.725-5.725-13.368-8.878-21.523-8.878     c-1.657,0-3-1.343-3-3s1.343-3,3-3c9.758,0,18.908,3.777,25.766,10.636c1.172,1.171,1.172,3.071,0,4.243     C153.594,86.783,152.826,87.076,152.059,87.076z"/>
		</g>
	</g>
	<g>
		<g>
			<circle class="st17" cx="139.979" cy="134.358" r="9"/>
		</g>
	</g>
</g>
</svg>
