<?xml version="1.0" encoding="UTF-8"?>
<svg width="150" height="150" version="1.1" viewBox="0 0 140.25 150.75" xmlns="http://www.w3.org/2000/svg" xmlns:cc="http://creativecommons.org/ns#" xmlns:dc="http://purl.org/dc/elements/1.1/" xmlns:rdf="http://www.w3.org/1999/02/22-rdf-syntax-ns#" xmlns:xlink="http://www.w3.org/1999/xlink">
 <metadata>
  <rdf:RDF>
   <cc:Work rdf:about="">
    <dc:format>image/svg+xml</dc:format>
    <dc:type rdf:resource="http://purl.org/dc/dcmitype/StillImage"/>
    <dc:title/>
   </cc:Work>
  </rdf:RDF>
 </metadata>
 <defs>
  <path id="a" d="m3.572 20.595c-4.858 13.383 0.535 27.963 1.975 31.11-7.354 11.475-6.092 25.84-3.046 37.662s10.137 23.746 19.506 30.262c14.043 9.767 35.542 8.926 35.542 8.926v2.123s-3.848 1.4-9.487 7.234c-4.286 4.434-7.24 4.563-10.116 3.321-2.414-1.042-2.037-4.44-2.43-10.276-0.286-4.234-5.355-2.402-7.092 1.95-3.35 8.388-0.162 16.054 6.47 19.015 10.746 4.797 22.655-7.428 22.655-7.428s1.412 8.811-1.1 11.553c-2.487 2.715-6.065 2.19-9.592-1.136-1.966-1.854-4.783-0.292-4.407 2.377 0.715 5.091 4.445 9.938 10.53 9.938 7.479 0 15.306-4.102 14.937-14.676-0.607-17.366 1.578-18.477 1.578-18.477s0.833 6.869 4.005 19.226c2.196 8.55-4.629 12.59-9.599 14.315-4.2 1.457-6.557 5.28-1.307 6.47 8.236 1.869 15.048-0.43 19.871-8.653 4.093-6.975 1.9-11.284-0.587-23.327-1.035-5.015-1.14-10.242-1.14-10.242l1.727-0.14s-0.282 3.285 2.595 14.221c2.33 8.858 3.573 16.398-0.71 24.876-1.494 2.958-9.24 8.487-4.786 9.62 4.693 1.194 11.293-0.345 15.305-7.142 5.263-8.916 3.516-16.295 0.683-28.803-1.85-8.17-1.807-12.665-1.807-12.665s4.39 1.962 4.899 7.217c0.843 8.687 2.914 15.865 8.927 19.105 8.652 4.662 14.926 1.901 17.66-2.104 1.894-2.777 2.134-8.775-0.272-10.104-1.824-1.008-3.691 4.642-6.875 5.12-4.22 0.631-8.746-1.283-8.746-13.15 0-11.174-5.666-17.056-5.666-17.056s30.515-7.755 36.772-29.505c3.474-12.074 3.105-26.533-1.355-41.528-4.29-14.424-14.773-21.8-14.773-21.8s0.577-14.52-8.636-27.186c-12.26-4.049-29.032 12.058-31.33 13.944-24.817-1.18-45.636 8.827-45.636 8.827s-23.206-11.215-35.142-3.014z"/>
  <mask id="b" fill="#ffffff">
   <use width="100%" height="100%" xlink:href="#a"/>
  </mask>
 </defs>
 <g transform="matrix(.95539 0 0 .81796 -5.9851 -.16984)">
  <path d="m157.47 184.43c-1.4898-1.5579-1.0154-1.4838-2.3062-4.6876-10.16-25.215-23.277-35.379-41.953-27.434-14.545 6.1878-24.871-5.2169-31.855-29.746-2.4402-8.5719-4.2509-18.089-5.5189-27.821a186.5 210.28 0 0 1-1.0601-9.6517 133.31 150.31 0 0 1-0.22014-2.7202 59.137 66.677 0 0 1-0.06337-0.94246l-0.1584-2.7413-4.8642 0.3572 0.15921 2.7422c0.03087 0.48817 0.04792 0.74096 0.06904 1.0295 0.05849 0.81789 0.13403 1.7622 0.22745 2.821 0.26644 3.0151 0.62548 6.3472 1.0885 9.9045 1.3038 10.008 3.168 19.808 5.7 28.702 3.4117 11.984 7.7861 21.419 13.335 27.547 6.8413 7.5561 15.239 9.7634 24.881 5.6602 16.027-6.8179 27.477 2.5398 38.614 23.037 1.7912 3.2963 3.0852 4.334 3.9243 3.9429z" fill="#3d464f" stroke-width=".86255"/>
  <use transform="rotate(32,60.281,84.281)" width="100%" height="100%" fill="#78af9f" fill-rule="evenodd" xlink:href="#a"/>
  <g>
   <path transform="rotate(32,60.281,84.281)" d="m37.318 127.79s-4.153-0.871-5.242 1.163c5.155-0.845-1.4 12.464 8.517 12.792 0.436-5.279-3.275-13.954-3.275-13.954zm19.999 13.588c-0.308 3.58 0 5.762 0 5.762l-5.317 4.334-12.72 3.152-9.022-1.414-2.058-5.574s5.33 5.778 14.51 3.255c9.18-2.524 11.945-5.935 14.607-9.515zm12.264-7.265c-0.43 5.497 0 11.248 0 11.248l0.7 4.322 0.27 6.832-4.876 8.352-10.132 4.062-16.425-2.214 2.758-7.791s5.357 8.645 13.667 5.497 10.179-7.53 9.41-16.224 1.096-12.841 4.628-14.084zm10.944-2.11c0.64 0.342 1.426 0.901 1.426 0.901l3.403 19.748 0.566 12.079-6.559 7.174-11.153 6.437-13.029-3.858 3.342-5.14s0.585 5.888 11.688 3.14c11.103-2.747 13.77-9.828 13-18.522-0.768-8.694-4.09-14.295-2.684-21.959zm13.05 0.074c1.238 2.367 2.784 5.973 2.784 5.973l6.644 36.23-21.14 12.397-11.361-7.257 8.011-6.018s-3.536 9.76 6.504 4.667c10.041-5.093 12.11-10.783 11.342-19.477s-2.783-17.356-2.783-26.515zm5.557 15.385 7.907 29.832 31.766-19.835-10.987-20.403-7.02 9.1s4.798-2.085 4.275 4.588c-0.524 6.672-7.53 8.452-13.67 7.7-7.395-0.906-12.271-10.982-12.271-10.982zm16.752-146.5 25.496-2.92 11.426 115.86s-27.937 12.425-39.406 35.475c-10.533-1.693 2.506-28.551-23.165-24.184-10.154 1.727-16.47 2.424-22.845 3.205-7.043 0.862-8.907 3.115-10.731 4.696-1.527-1.581-3.852-0.768-3.852-0.768s-29.09-6.521-37.695-12.816c11.037 0 6.77 0.961 18.394 0 6.702 3.711 21.6 6.832 49.471 1.167 27.87-5.665 44.478-11.34 47.869-27.14 5.238-24.409-10.973-35.48-10.973-35.48s-2.278-17.5-17.006-24.454c19.256-8.88 13.017-32.64 13.017-32.64zm-115.67 20.032 24.09-15.738 14.423 18.657s4.783 10.01-6.555 18.268c-0.491-26.944-31.958-21.187-31.958-21.187zm85.018-10.06s-6.903 13.415 12.984 21.369c-19.218-5.269-14.758-14.356-19.317-15.878-5.517-1.843-11.237-3.366-11.898-5.491 9.12-3.705 18.23 0 18.23 0z" fill-rule="evenodd" mask="url(#b)" opacity=".224"/>
   <g>
    <path d="m36.358 138.75c0.04043 0.45802 0.21317 1.1685 0.6064 2.0074 0.85866 1.8301 2.3978 3.3826 4.771 4.3704 1.7996 0.75073 3.47 1.0516 4.9891 0.99264 1.3977-0.0534 2.4018-0.37525 2.9693-0.70221l-0.75569-1.3118a3.118 3.118 0 0 1-0.52956 0.21152c-0.49119 0.15766-1.0732 0.26446-1.7409 0.28943-1.299 0.0503-2.7521-0.21153-4.3486-0.8778-2.0128-0.83795-3.2794-2.1152-3.9838-3.6166a5.892 5.892 0 0 1-0.39622-1.1096 3.13 3.13 0 0 1-0.07371-0.39156z" opacity=".327"/>
    <path d="m24.188 135.29c0.04624 0.27888 0.22266 0.68156 0.59382 1.1764 0.78259 1.0385 2.1877 2.1394 4.3802 3.2559 1.8922 0.96304 3.7101 1.2807 5.3932 1.0989 1.2164-0.13134 2.1158-0.47614 2.6355-0.79641l-0.79332-1.2893a3.288 3.288 0 0 1-0.4862 0.22328 6.058 6.058 0 0 1-1.5178 0.35694c-1.3948 0.15076-2.9177-0.11452-4.5445-0.9436-2.0001-1.0187-3.2254-1.9789-3.8581-2.8176-0.22729-0.30239-0.30437-0.47909-0.31042-0.5147zm24.417 9.2813c0.04096 0.45718 0.2137 1.1677 0.60693 2.0065 0.85866 1.8301 2.3978 3.3827 4.7705 4.3712 1.8002 0.74988 3.4705 1.0508 4.9891 0.99264 1.3977-0.0535 2.4023-0.3761 2.9698-0.70306l-0.75569-1.3118a3.118 3.118 0 0 1-0.52956 0.21152c-0.49119 0.15767-1.0732 0.26447-1.7414 0.29029-1.2985 0.0494-2.7516-0.21238-4.3486-0.8778-2.0128-0.83795-3.2789-2.1161-3.9838-3.6167a5.892 5.892 0 0 1-0.3957-1.1104 3.13 3.13 0 0 1-0.07424-0.3907zm11.891 8.3456c0.04128 0.45855 0.21317 1.1685 0.60725 2.0079 0.85782 1.8296 2.397 3.3821 4.7705 4.3712 1.7993 0.74936 3.4705 1.0508 4.9891 0.99264 1.3969-0.054 2.4023-0.3761 2.969-0.70358l-0.75484-1.3113a3.118 3.118 0 0 1-0.5304 0.21099c-0.49119 0.15767-1.0732 0.26447-1.7401 0.28997-1.2999 0.0497-2.7529-0.21206-4.35-0.87748-2.012-0.83742-3.2789-2.1161-3.9838-3.6167a5.892 5.892 0 0 1-0.39485-1.1099 3.13 3.13 0 0 1-0.07509-0.39124z" opacity=".327"/>
    <path d="m59.07 155.69c0.04128 0.45855 0.21264 1.1694 0.60725 2.0079 0.85782 1.8296 2.397 3.3821 4.7705 4.3712 1.7993 0.74935 3.4705 1.0508 4.9891 0.99264 1.3969-0.054 2.4023-0.3761 2.969-0.70359l-0.75484-1.3112a3.118 3.118 0 0 1-0.5304 0.21099c-0.49034 0.1582-1.0732 0.26446-1.7406 0.29081-1.2993 0.0489-2.7524-0.2129-4.3495-0.87833-2.012-0.83742-3.2794-2.1152-3.9838-3.6166a5.892 5.892 0 0 1-0.39485-1.1099 3.13 3.13 0 0 1-0.07424-0.39071l-1.5082 0.13773zm18.678 25.126c0.08479-0.0602 0.20499-0.16199 0.34892-0.30553 1.1181-1.1137 1.7415-2.7889 1.2559-4.9896a8.315 8.315 0 0 0-0.33718-1.1305c-0.93664-2.4979-2.4829-3.7447-4.1714-4.077-0.3215-0.0629-0.57665-0.0773-0.7437-0.0685l0.0807 1.5126c0.04876-3e-3 0.17882 4e-3 0.36973 0.0424 1.1872 0.23245 2.3003 1.1308 3.0478 3.1237 0.11875 0.31947 0.21079 0.62697 0.27643 0.92387 0.3631 1.6513-0.07086 2.8176-0.84575 3.5916-0.08384 0.0832-0.1415 0.13209-0.16217 0.1463l0.8815 1.2312zm-45.415-11.197c-0.15157 0.0727-0.37427 0.20832-0.63617 0.4161-1.5189 1.2041-2.372 3.1921-1.8455 6.0162 0.54936 2.9516 2.0606 4.528 3.8334 5.0839 0.21455 0.068 0.38458 0.10352 0.49821 0.11793l0.1826-1.5037c-0.0248-4e-3 -0.10547-0.0199-0.22621-0.0588-1.2603-0.39484-2.3576-1.5392-2.8001-3.9182-0.41827-2.2424 0.19968-3.6804 1.2978-4.5508 0.1681-0.13315 0.29455-0.21097 0.34872-0.23726z" opacity=".327"/>
    <path d="m29.605 170.05a3.404 3.404 0 0 0-0.60734 0.39639c-1.4432 1.1452-2.2554 3.0338-1.7555 5.7116 0.52157 2.7998 1.9569 4.2958 3.6424 4.8254 0.20501 0.0644 0.36751 0.0988 0.47722 0.11189l0.1826-1.5037a1.483 1.483 0 0 1-0.20522-0.0528c-1.1735-0.36771-2.1938-1.4333-2.6096-3.6589-0.38985-2.0973 0.18496-3.4361 1.2082-4.2471 0.15507-0.12361 0.2723-0.19421 0.32126-0.21786zm-6.4819-14.095c-0.4099-0.0309-1.0364 0.0281-1.7746 0.28488-1.7133 0.5944-3.1405 1.9914-3.9814 4.375-0.61506 1.7429-0.69484 3.2802-0.34364 4.6034 0.34483 1.2956 0.99564 2.1374 1.57 2.5694l0.91042-1.2117a2.246 2.246 0 0 1-0.35588-0.38156 3.819 3.819 0 0 1-0.66157-1.3662c-0.27156-1.0222-0.20786-2.2489 0.30811-3.7106 0.68595-1.945 1.7668-3.003 3.0495-3.4479 0.30707-0.10645 0.60217-0.16732 0.87141-0.19247 0.15274-0.0142 0.25429-0.0144 0.29129-0.0114l0.1172-1.5104z" opacity=".327"/>
    <path d="m22.015 155.52c-0.52472-0.22647-1.3494-0.37861-2.3645-0.21103-1.3541 0.22336-2.6526 0.99919-3.7927 2.4388-1.3084 1.6504-1.766 3.2583-1.5765 4.7233 0.09558 0.74718 0.32968 1.2991 0.55252 1.6294l1.2538-0.8497c-0.10008-0.14744-0.24268-0.48535-0.30622-0.97432-0.13578-1.0565 0.20564-2.2558 1.2623-3.5883 0.90874-1.1467 1.8729-1.7234 2.8523-1.8849 0.40756-0.0673 0.79022-0.0569 1.1364 6e-3 0.19727 0.0372 0.3303 0.079 0.38034 0.10088zm-6.2924-14.217a3.41 3.41 0 0 0-0.35355-0.41548c-1.3076-1.3418-3.2947-2.0682-5.9363-1.4336-0.32732 0.0785-0.66206 0.17825-1.002 0.29954-2.8969 1.0316-4.3488 2.7834-4.7498 4.7084-0.073213 0.34928-0.093645 0.62541-0.086738 0.80306l1.513-0.0568a2.144 2.144 0 0 1 0.054761-0.43863c0.29688-1.4205 1.39-2.7397 3.7759-3.5895 0.28884-0.10369 0.57217-0.18725 0.84628-0.25416 2.0807-0.49924 3.5416 0.0351 4.4996 1.0193 0.10728 0.10949 0.17121 0.18835 0.19294 0.21962l1.2454-0.86084z" opacity=".327"/>
    <path d="m15.016 140.27a3.683 3.683 0 0 0-0.42037-0.90298c-0.93464-1.5085-2.6226-2.5078-5.1803-2.4812-0.62964 7e-3 -1.2129 0.071-1.7516 0.18959-2.018 0.44412-3.1982 1.5497-3.7365 2.7792-0.044192 0.10092-0.072911 0.18084-0.089547 0.23766l1.4469 0.43955 0.029249-0.0713a2.834 2.834 45 0 1 0.66951-0.91293c0.48766-0.45585 1.1425-0.80369 2.0051-0.99341 0.43448-0.0952 0.91434-0.14795 1.4419-0.15436 2.0083-0.021 3.213 0.69293 3.8787 1.7657 0.14747 0.23954 0.2254 0.4262 0.24957 0.51206zm-1.6288-24.837c0.05212-0.33062 0.02324-0.82033-0.18733-1.4024-0.46694-1.2964-1.6476-2.4339-3.6999-3.2388-1.4612-0.57343-2.766-0.77799-3.9108-0.68206-1.1669 0.0974-1.9647 0.46446-2.3976 0.83656l0.98591 1.149c0.027558-0.0252 0.13048-0.0918 0.30897-0.17365 0.3271-0.15172 0.73561-0.262 1.2274-0.3037 0.90841-0.0762 1.9817 0.0933 3.2328 0.58386 1.6621 0.65185 2.5169 1.4748 2.8305 2.343 0.11578 0.32234 0.12916 0.55946 0.11475 0.65422z" opacity=".327"/>
    <path d="m14.764 113.74c0.05975-0.40132 0.03955-1.0106-0.17792-1.7326-0.45064-1.4961-1.5869-2.7839-3.5602-3.6397-1.6003-0.69224-3.0317-0.82842-4.2741-0.52345-1.0415 0.25715-1.7444 0.74598-2.1243 1.1842l1.1438 0.99067a1.8 1.8 0 0 1 0.29042-0.23831 3.15 3.15 0 0 1 1.0506-0.46607c0.91402-0.22481 2.0087-0.11976 3.3108 0.44393 1.5632 0.67613 2.3912 1.6156 2.7147 2.6868 0.08504 0.28661 0.12725 0.56062 0.13544 0.80982 0.0047 0.13971-0.0015 0.23257-0.0058 0.26405zm66.635 67.241c0.05734-0.0503 0.13927-0.1323 0.23996-0.24626 0.93312-1.063 1.5184-2.5923 1.2445-4.5392-0.117-0.82424-0.38981-1.6822-0.83446-2.5708-1.299-2.5993-3.0967-3.8323-4.9804-4.0731-0.44287-0.0574-0.79076-0.046-1.0125-0.0101l0.23779 1.4952c0.08671-0.0142 0.29129-0.0208 0.58067 0.0162 1.3932 0.17837 2.7506 1.1103 3.821 3.2508 0.37213 0.7443 0.59564 1.4452 0.6892 2.1051 0.20631 1.4626-0.21854 2.5708-0.88298 3.3266-0.05745 0.0655-0.09571 0.1041-0.10705 0.1147zm-46.949-39.365c0.13392 0.41975 0.43258 1.0816 0.94442 1.8684 1.1737 1.8053 2.8983 3.344 5.2716 4.3317 1.7344 0.72297 3.3041 1.0529 4.7003 1.0622 1.3909 8e-3 2.3633-0.27784 2.9001-0.59334l-0.76576-1.3051a2.417 2.417 0 0 1-0.46267 0.1743 5.78 5.78 0 0 1-1.6614 0.2094c-1.1961-7e-3 -2.5715-0.29677-4.1275-0.94481-2.0732-0.86392-3.569-2.1972-4.5846-3.761a8.358 8.358 0 0 1-0.61003-1.1052c-0.08906-0.19716-0.14196-0.33516-0.16211-0.39728l-1.4431 0.46018z" opacity=".327"/>
    <path d="m21.791 136.45c0.13392 0.41974 0.43258 1.0816 0.94442 1.8684 1.1732 1.8061 2.8983 3.344 5.271 4.3326 1.7344 0.72297 3.3041 1.0529 4.7003 1.0622 1.3909 8e-3 2.3633-0.27784 2.9006-0.59419l-0.76629-1.3043a2.417 2.417 0 0 1-0.46214 0.17346 5.78 5.78 0 0 1-1.6614 0.2094c-1.1961-7e-3 -2.572-0.29592-4.128-0.94396-2.0732-0.86392-3.5685-2.198-4.5846-3.761a8.358 8.358 0 0 1-0.61003-1.1052c-0.08906-0.19715-0.14144-0.336-0.16158-0.39812l-1.4431 0.46018zm25.126 11.121c0.13392 0.41975 0.43258 1.0816 0.94527 1.8689 1.1723 1.8056 2.8983 3.344 5.271 4.3326 1.7344 0.72296 3.3033 1.0524 4.6995 1.0617 1.3909 8e-3 2.3633-0.27783 2.9006-0.59419l-0.76629-1.3042a2.417 2.417 0 0 1-0.46214 0.17346 5.78 5.78 0 0 1-1.6606 0.20993c-1.1978-8e-3 -2.5729-0.29645-4.1289-0.9445-2.0732-0.86391-3.5685-2.198-4.5846-3.761a8.358 8.358 0 0 1-0.61003-1.1052c-0.08906-0.19715-0.14144-0.33601-0.16158-0.39812l-1.4431 0.46017z" opacity=".327"/>
   </g>
   <g fill-rule="evenodd">
    <ellipse transform="rotate(32)" cx="77.47" cy="99.349" rx="1.813" ry="1.165" opacity=".332"/>
    <ellipse transform="rotate(70)" cx="117.33" cy="32.763" rx="1.813" ry="1.165" opacity=".332"/>
    <ellipse transform="rotate(104)" cx="110.8" cy="-36.816" rx="1.813" ry="1.165" opacity=".332"/>
    <ellipse transform="rotate(1)" cx="20.655" cy="125.6" rx="1.813" ry="1.165" opacity=".332"/>
    <ellipse transform="rotate(-11)" cx="-.77142" cy="127.34" rx="1.813" ry="1.165" opacity=".332"/>
    <ellipse transform="rotate(-11)" cx="4.1633" cy="126.98" rx="1.813" ry="1.165" opacity=".332"/>
   </g>
  </g>
  <g fill-rule="evenodd">
   <ellipse transform="rotate(21)" cx="127.22" cy="60.203" rx="10.263" ry="14.603" fill="#fff"/>
   <ellipse transform="rotate(21)" cx="127.22" cy="60.203" rx="6.626" ry="9.434"/>
   <ellipse transform="rotate(21)" cx="72.744" cy="57.249" rx="10.263" ry="14.603" fill="#fff"/>
  </g>
  <g>
   <ellipse transform="rotate(21)" cx="72.794" cy="56.995" rx="6.626" ry="9.434" fill-rule="evenodd"/>
   <ellipse transform="rotate(32)" cx="110" cy="50.975" rx="2.598" ry="2.585" fill-rule="evenodd"/>
   <path d="m58.309 105.55a6.628 6.628 0 0 0 3.1222 5.439 6.625 6.625 0 0 0 7.7181-0.48939 0.774 0.774 0 0 0 0.10176-1.0932 0.78 0.78 0 0 0-1.0958-0.10696 5.067 5.067 0 0 1-5.903 0.37367 5.067 5.067 0 0 1-2.3872-4.1602 0.782 0.782 0 0 0-0.79984-0.75803 0.773 0.773 0 0 0-0.75623 0.79507z"/>
  </g>
  <path d="m59.614 122.98c27.941 11.289 51.347 18.568 62.935-10.114 6.8179-16.874-10.305-39.705-38.245-50.993-27.941-11.289-56.117-6.7619-62.935 10.114-10.616 26.274 10.305 39.705 38.245 50.993z" fill="#ffad19" fill-rule="evenodd" opacity=".772"/>
  <g fill="#fff" fill-rule="evenodd">
   <path d="m115.57 97.517c3.5211 14.519-8.0621 27-16.481 28.845-11.589 2.537-21.089 1.4463-48.594-10.511 15.962-9.8797 51.379-22.827 65.075-18.334z" opacity=".155"/>
   <path d="m75.871 63.861c6.5202 1.3504 11.738 4.6284 11.738 4.6284s-33.206 5.7234-62.432 28.489c-2.2159-2.6039-2.6893-6.9809-2.6893-6.9809s16.773-16.572 53.383-26.137z" opacity=".542"/>
   <path d="m56.702 60.167c7.0344 0.05382 14.655 1.592 14.655 1.592s-25.245 3.3811-48.916 25.03c-0.15209-3.1609 1.0794-6.5433 1.0794-6.5433s17.125-15.512 33.182-20.078z" opacity=".542"/>
  </g>
 </g>
</svg>
