<?xml version="1.0" encoding="UTF-8" standalone="no"?>
<svg
   xmlns:dc="http://purl.org/dc/elements/1.1/"
   xmlns:cc="http://creativecommons.org/ns#"
   xmlns:rdf="http://www.w3.org/1999/02/22-rdf-syntax-ns#"
   xmlns:svg="http://www.w3.org/2000/svg"
   xmlns="http://www.w3.org/2000/svg"
   xmlns:xlink="http://www.w3.org/1999/xlink"
   xmlns:sodipodi="http://sodipodi.sourceforge.net/DTD/sodipodi-0.dtd"
   xmlns:inkscape="http://www.inkscape.org/namespaces/inkscape"
   width="231.92519mm"
   height="178.15768mm"
   viewBox="0 0 231.92519 178.15768"
   version="1.1"
   id="svg8"
   inkscape:version="1.0.2 (e86c870, 2021-01-15)"
   sodipodi:docname="git.svg">
  <defs
     id="defs2">
    <path
       d="m 3.572,20.595 c -4.858,13.383 0.535,27.963 1.975,31.11 -7.354,11.475 -6.092,25.84 -3.046,37.662 3.046,11.822 10.137,23.746 19.506,30.262 14.043,9.767 35.542,8.926 35.542,8.926 v 2.123 c 0,0 -3.848,1.4 -9.487,7.234 -4.286,4.434 -7.24,4.563 -10.116,3.321 -2.414,-1.042 -2.037,-4.44 -2.43,-10.276 -0.286,-4.234 -5.355,-2.402 -7.092,1.95 -3.35,8.388 -0.162,16.054 6.47,19.015 10.746,4.797 22.655,-7.428 22.655,-7.428 0,0 1.412,8.811 -1.1,11.553 -2.487,2.715 -6.065,2.19 -9.592,-1.136 -1.966,-1.854 -4.783,-0.292 -4.407,2.377 0.715,5.091 4.445,9.938 10.53,9.938 7.479,0 15.306,-4.102 14.937,-14.676 -0.607,-17.366 1.578,-18.477 1.578,-18.477 0,0 0.833,6.869 4.005,19.226 2.196,8.55 -4.629,12.59 -9.599,14.315 -4.2,1.457 -6.557,5.28 -1.307,6.47 8.236,1.869 15.048,-0.43 19.871,-8.653 4.093,-6.975 1.9,-11.284 -0.587,-23.327 -1.035,-5.015 -1.14,-10.242 -1.14,-10.242 l 1.727,-0.14 c 0,0 -0.282,3.285 2.595,14.221 2.33,8.858 3.573,16.398 -0.71,24.876 -1.494,2.958 -9.24,8.487 -4.786,9.62 4.693,1.194 11.293,-0.345 15.305,-7.142 5.263,-8.916 3.516,-16.295 0.683,-28.803 -1.85,-8.17 -1.807,-12.665 -1.807,-12.665 0,0 4.39,1.962 4.899,7.217 0.843,8.687 2.914,15.865 8.927,19.105 8.652,4.662 14.926,1.901 17.66,-2.104 1.894,-2.777 2.134,-8.775 -0.272,-10.104 -1.824,-1.008 -3.691,4.642 -6.875,5.12 -4.22,0.631 -8.746,-1.283 -8.746,-13.15 0,-11.174 -5.666,-17.056 -5.666,-17.056 0,0 30.515,-7.755 36.772,-29.505 3.474,-12.074 3.105,-26.533 -1.355,-41.528 -4.29,-14.424 -14.773,-21.8 -14.773,-21.8 0,0 0.577,-14.52 -8.636,-27.186 -12.26,-4.049 -29.032,12.058 -31.33,13.944 -24.817,-1.18 -45.636,8.827 -45.636,8.827 0,0 -23.206,-11.215 -35.142,-3.014 z"
       id="a" />
    <path
       d="m 7,83.5 c 0,45.011 35.817,81.5 80,81.5 44.183,0 80,-36.489 80,-81.5 C 167,38.489 131.183,2 87,2 42.817,2 7,38.489 7,83.5 Z"
       id="c" />
    <filter
       x="-0.040999997"
       y="-0.039999999"
       width="1.081"
       height="1.08"
       filterUnits="objectBoundingBox"
       id="d">
      <feOffset
         dx="4"
         dy="-13"
         in="SourceAlpha"
         result="shadowOffsetInner1"
         id="feOffset12" />
      <feComposite
         in="shadowOffsetInner1"
         in2="SourceAlpha"
         operator="arithmetic"
         k2="-1"
         k3="1"
         result="shadowInnerInner1"
         id="feComposite14"
         k1="0"
         k4="0" />
      <feColorMatrix
         values="0 0 0 0 0 0 0 0 0 0 0 0 0 0 0 0 0 0 0.169299139 0"
         in="shadowInnerInner1"
         id="feColorMatrix16" />
    </filter>
    <path
       d="m 20.086,76.96 c 0,34.117 27.313,61.775 61.006,61.775 33.693,0 61.006,-27.658 61.006,-61.775 0,-34.118 -27.313,-61.775 -61.006,-61.775 -33.693,0 -61.006,27.657 -61.006,61.775 z"
       id="e" />
    <filter
       x="-0.040999997"
       y="-0.039999999"
       width="1.082"
       height="1.081"
       filterUnits="objectBoundingBox"
       id="f">
      <feOffset
         dx="-1"
         dy="-10"
         in="SourceAlpha"
         result="shadowOffsetInner1"
         id="feOffset20" />
      <feComposite
         in="shadowOffsetInner1"
         in2="SourceAlpha"
         operator="arithmetic"
         k2="-1"
         k3="1"
         result="shadowInnerInner1"
         id="feComposite22"
         k1="0"
         k4="0" />
      <feColorMatrix
         values="0 0 0 0 0 0 0 0 0 0 0 0 0 0 0 0 0 0 0.16553442 0"
         in="shadowInnerInner1"
         id="feColorMatrix24" />
    </filter>
    <mask
       id="mask831"
       fill="#ffffff">
      <use
         xlink:href="#a"
         id="use829"
         x="0"
         y="0"
         width="100%"
         height="100%" />
    </mask>
    <mask
       id="b"
       fill="#ffffff">
      <use
         xlink:href="#a"
         id="use31"
         x="0"
         y="0"
         width="100%"
         height="100%" />
    </mask>
  </defs>
  <sodipodi:namedview
     id="base"
     pagecolor="#ffffff"
     bordercolor="#666666"
     borderopacity="1.0"
     inkscape:pageopacity="0.0"
     inkscape:pageshadow="2"
     inkscape:zoom="0.7"
     inkscape:cx="357.55643"
     inkscape:cy="279.31763"
     inkscape:document-units="mm"
     inkscape:current-layer="g630"
     inkscape:document-rotation="0"
     showgrid="false"
     inkscape:window-width="1920"
     inkscape:window-height="1055"
     inkscape:window-x="1600"
     inkscape:window-y="0"
     inkscape:window-maximized="1" />
  <metadata
     id="metadata5">
    <rdf:RDF>
      <cc:Work
         rdf:about="">
        <dc:format>image/svg+xml</dc:format>
        <dc:type
           rdf:resource="http://purl.org/dc/dcmitype/StillImage" />
        <dc:title></dc:title>
      </cc:Work>
    </rdf:RDF>
  </metadata>
  <g
     inkscape:label="Layer 1"
     inkscape:groupmode="layer"
     id="layer1"
     transform="translate(-0.04750441,-37.467499)">
    <g
       id="g630"
       transform="translate(-80.657314,36.875575)">
      <path
         d="m 312.63,44.816 c -2.363,0.82 -2.018,0.343 -5.852,0.104 -30.179,-1.881 -47.56,7.167 -50.693,31.538 -2.441,18.982 -19.403,24.36 -47.087,19.378 -9.674,-1.741 -19.895,-4.652 -30.01,-8.262 a 229.593,229.593 0 0 1 -9.917,-3.794 c -1.04,-0.427 -1.96,-0.815 -2.75,-1.156 a 72.8,72.8 0 0 1 -0.945,-0.414 l -2.735,-1.233 -2.466,5.47 2.735,1.233 c 0.49,0.217 0.742,0.327 1.032,0.452 0.823,0.356 1.777,0.758 2.851,1.199 a 235.564,235.564 0 0 0 10.178,3.894 c 10.402,3.712 20.927,6.71 30.964,8.516 13.525,2.434 25.149,2.516 34.264,-0.374 11.238,-3.563 18.218,-11.56 19.837,-24.143 2.69,-20.915 18.328,-28.565 44.524,-30.164 4.212,-0.257 5.961,-1.131 6.07,-2.244 z"
         fill="#623a1f"
         fill-rule="nonzero"
         id="path29" />
      <use
         fill="#d36e2d"
         xlink:href="#a"
         id="use34"
         x="0"
         y="0"
         width="100%"
         height="100%"
         transform="rotate(-28,142.554,-109.05)" />
      <path
         d="m 37.318,127.79 c 0,0 -4.153,-0.871 -5.242,1.163 5.155,-0.845 -1.4,12.464 8.517,12.792 0.436,-5.279 -3.275,-13.954 -3.275,-13.954 z m 19.999,13.588 c -0.308,3.58 0,5.762 0,5.762 L 52,151.474 39.28,154.626 30.258,153.212 28.2,147.638 c 0,0 5.33,5.778 14.51,3.255 9.18,-2.524 11.945,-5.935 14.607,-9.515 z m 12.264,-7.265 c -0.43,5.497 0,11.248 0,11.248 l 0.7,4.322 0.27,6.832 -4.876,8.352 -10.132,4.062 -16.425,-2.214 2.758,-7.791 c 0,0 5.357,8.645 13.667,5.497 8.31,-3.148 10.179,-7.53 9.41,-16.224 -0.769,-8.694 1.096,-12.841 4.628,-14.084 z m 10.944,-2.11 c 0.64,0.342 1.426,0.901 1.426,0.901 l 3.403,19.748 0.566,12.079 -6.559,7.174 -11.153,6.437 -13.029,-3.858 3.342,-5.14 c 0,0 0.585,5.888 11.688,3.14 11.103,-2.747 13.77,-9.828 13,-18.522 -0.768,-8.694 -4.09,-14.295 -2.684,-21.959 z m 13.05,0.074 c 1.238,2.367 2.784,5.973 2.784,5.973 l 6.644,36.23 -21.14,12.397 -11.361,-7.257 8.011,-6.018 c 0,0 -3.536,9.76 6.504,4.667 10.041,-5.093 12.11,-10.783 11.342,-19.477 -0.768,-8.694 -2.783,-17.356 -2.783,-26.515 z m 5.557,15.385 7.907,29.832 31.766,-19.835 -10.987,-20.403 -7.02,9.1 c 0,0 4.798,-2.085 4.275,4.588 -0.524,6.672 -7.53,8.452 -13.67,7.7 -7.395,-0.906 -12.271,-10.982 -12.271,-10.982 z m 16.752,-146.497 25.496,-2.92 11.426,115.86 c 0,0 -27.937,12.425 -39.406,35.475 -10.533,-1.693 2.506,-28.551 -23.165,-24.184 -10.154,1.727 -16.47,2.424 -22.845,3.205 -7.043,0.862 -8.907,3.115 -10.731,4.696 -1.527,-1.581 -3.852,-0.768 -3.852,-0.768 0,0 -29.09,-6.521 -37.695,-12.816 11.037,0 6.77,0.961 18.394,0 6.702,3.711 21.6,6.832 49.471,1.167 27.87,-5.665 44.478,-11.34 47.869,-27.14 5.238,-24.409 -10.973,-35.48 -10.973,-35.48 0,0 -2.278,-17.5 -17.006,-24.454 19.256,-8.88 13.017,-32.64 13.017,-32.64 z M 0.211,20.997 24.301,5.259 38.724,23.916 c 0,0 4.783,10.01 -6.555,18.268 C 31.678,15.24 0.211,20.997 0.211,20.997 Z m 85.018,-10.06 c 0,0 -6.903,13.415 12.984,21.369 C 78.995,27.037 83.455,17.95 78.896,16.428 73.379,14.585 67.659,13.062 66.998,10.937 c 9.12,-3.705 18.23,0 18.23,0 z"
         fill="#000000"
         opacity="0.224"
         mask="url(#b)"
         id="path36"
         transform="rotate(-28,142.554,-109.05)" />
      <path
         d="m 195.88414,148.22803 c 0.41687,0.194 1.11855,0.39965 2.04163,0.47852 2.01426,0.17143 4.12837,-0.38524 6.17035,-1.94666 1.54997,-1.18316 2.64573,-2.4793 3.35419,-3.82435 0.65257,-1.23718 0.87593,-2.26766 0.87653,-2.9226 l -1.51389,-10e-4 a 3.118,3.118 0 0 1 -0.0816,0.56436 c -0.10905,0.50422 -0.30758,1.06167 -0.6198,1.6524 -0.60598,1.15011 -1.55923,2.27761 -2.9345,3.32711 -1.73209,1.32416 -3.47156,1.78243 -5.12403,1.64175 a 5.892,5.892 0 0 1 -1.15902,-0.21164 3.13,3.13 0 0 1 -0.37595,-0.13194 z"
         id="path38"
         style="opacity:0.327;fill:#000000;fill-rule:nonzero" />
      <path
         d="m 186.80299,157.03755 c 0.26464,0.0994 0.70157,0.14794 1.31573,0.074 1.29067,-0.15849 2.94663,-0.82492 5.0098,-2.16543 1.78011,-1.15716 2.96414,-2.57273 3.64828,-4.12116 0.49447,-1.11914 0.64556,-2.07042 0.62803,-2.68061 l -1.51323,0.0424 a 3.288,3.288 45 0 1 -0.0497,0.5327 6.058,6.058 0 0 1 -0.44977,1.4929 c -0.56686,1.28334 -1.55801,2.4695 -3.08944,3.46386 -1.88226,1.2228 -3.32652,1.80385 -4.36922,1.93241 -0.37553,0.0456 -0.56709,0.024 -0.60095,0.0115 z m 20.24625,-16.50499 c 0.4164,0.19311 1.11808,0.39877 2.04116,0.47764 2.01425,0.17143 4.12837,-0.38525 6.17082,-1.94578 1.5495,-1.18404 2.64526,-2.48019 3.35419,-3.82435 0.65257,-1.23717 0.87546,-2.26854 0.87605,-2.92348 l -1.51388,-0.001 a 3.118,3.118 0 0 1 -0.0816,0.56437 c -0.10905,0.50422 -0.30758,1.06167 -0.61933,1.65328 -0.60646,1.14923 -1.55971,2.27673 -2.93451,3.32711 -1.73208,1.32416 -3.47202,1.78155 -5.12402,1.64176 a 5.892,5.892 0 0 1 -1.1595,-0.21253 3.13,3.13 0 0 1 -0.37548,-0.13106 z m 13.17323,-6.12546 c 0.41775,0.19353 1.11855,0.39965 2.04251,0.47806 2.01337,0.1719 4.12749,-0.38478 6.17082,-1.94578 1.54862,-1.18358 2.64526,-2.48019 3.3542,-3.82435 0.65168,-1.23671 0.87545,-2.26854 0.87517,-2.92302 l -1.513,-0.002 a 3.118,3.118 0 0 1 -0.0825,0.56484 c -0.10905,0.50421 -0.30758,1.06167 -0.61892,1.65192 -0.60686,1.15059 -1.56012,2.27809 -2.93492,3.32847 -1.7312,1.32369 -3.47202,1.78155 -5.12402,1.64175 a 5.892,5.892 0 0 1 -1.15861,-0.21299 3.13,3.13 0 0 1 -0.37637,-0.1306 z"
         id="path40"
         style="opacity:0.327;fill:#000000;fill-rule:nonzero" />
      <path
         d="m 221.9098,137.02883 c 0.41775,0.19353 1.11902,0.40053 2.04251,0.47805 2.01338,0.1719 4.12749,-0.38478 6.17082,-1.94578 1.54862,-1.18357 2.64526,-2.48018 3.3542,-3.82435 0.65168,-1.2367 0.87546,-2.26854 0.87517,-2.92301 l -1.513,-0.002 a 3.118,3.118 0 0 1 -0.0825,0.56483 c -0.10817,0.50375 -0.30758,1.06167 -0.61845,1.65281 -0.60733,1.1497 -1.56058,2.2772 -2.93538,3.32758 -1.73121,1.3237 -3.47156,1.78244 -5.12403,1.64176 a 5.892,5.892 0 0 1 -1.15861,-0.213 3.13,3.13 0 0 1 -0.37548,-0.13106 l -0.6348,1.37496 z m 31.09812,-3.61254 c -0.01,-0.10355 -0.0378,-0.25852 -0.0901,-0.45494 -0.40548,-1.52516 -1.5445,-2.90266 -3.69317,-3.5825 a 8.315,8.315 0 0 0 -1.1476,-0.27322 c -2.63157,-0.4378 -4.48447,0.27786 -5.61647,1.57402 -0.21525,0.24696 -0.35528,0.46072 -0.43118,0.6098 l 1.35031,0.68642 c 0.0222,-0.0435 0.0932,-0.15265 0.22155,-0.29902 0.79492,-0.91193 2.12946,-1.42671 4.22914,-1.07759 0.33604,0.0569 0.64836,0.13094 0.9383,0.22254 1.61165,0.51122 2.40467,1.47016 2.68751,2.52823 0.0302,0.11421 0.0437,0.18858 0.0456,0.21359 l 1.50701,-0.1478 z m -32.40458,33.7325 c -0.0128,0.16763 -0.007,0.42828 0.0423,0.75899 0.28334,1.91742 1.57845,3.65024 4.28742,4.60637 2.83085,1.00005 4.95169,0.47944 6.31951,-0.77789 0.1662,-0.15179 0.28195,-0.28129 0.35124,-0.37249 l -1.21097,-0.91001 c -0.0156,0.0196 -0.07,0.0814 -0.16403,0.1665 -0.97207,0.89401 -2.51179,1.27212 -4.79336,0.46588 -2.1511,-0.75896 -3.08751,-2.01314 -3.29223,-3.39929 -0.0313,-0.21215 -0.0354,-0.36057 -0.0311,-0.42062 z"
         id="path42"
         style="opacity:0.327;fill:#000000;fill-rule:nonzero" />
      <path
         d="m 219.61349,169.72618 a 3.404,3.404 0 0 0 0.0396,0.72417 c 0.27023,1.82246 1.49967,3.47014 4.06871,4.37609 2.6855,0.94823 4.69872,0.45313 6.00011,-0.7417 0.15831,-0.14533 0.26929,-0.26889 0.33552,-0.35734 l -1.21097,-0.91 a 1.483,1.483 0 0 1 -0.14831,0.15134 c -0.90517,0.83238 -2.33821,1.18322 -4.47349,0.43058 -2.01122,-0.71102 -2.88327,-1.87824 -3.07399,-3.1699 -0.0295,-0.19609 -0.032,-0.33292 -0.028,-0.38715 z m -15.44726,-1.43377 c -0.23172,0.33953 -0.49386,0.91155 -0.64059,1.6793 -0.3419,1.78098 0.15436,3.71544 1.79816,5.63546 1.20187,1.40411 2.49334,2.24186 3.81483,2.5993 1.29445,0.34917 2.34886,0.20644 3.01016,-0.075 l -0.59412,-1.39428 a 2.246,2.246 45 0 1 -0.50838,0.11742 3.819,3.819 0 0 1 -1.51392,-0.11016 c -1.02107,-0.27593 -2.05152,-0.94441 -3.05938,-2.1221 -1.34149,-1.56658 -1.71728,-3.03165 -1.46124,-4.36491 0.0613,-0.31916 0.15617,-0.60516 0.26901,-0.8509 0.0641,-0.13939 0.11465,-0.22744 0.1358,-0.25795 l -1.24944,-0.85669 z"
         id="path44"
         style="opacity:0.327;fill:#000000;fill-rule:nonzero" />
      <path
         d="m 203.23553,169.03417 c -0.45849,0.34118 -1.00259,0.97932 -1.36499,1.94216 -0.48362,1.28439 -0.46095,2.79677 0.21571,4.50392 0.77512,1.95834 1.93878,3.15851 3.30223,3.72695 0.69487,0.29082 1.2899,0.36404 1.68734,0.33619 l -0.10897,-1.51067 c -0.17772,0.0129 -0.54166,-0.0325 -0.99689,-0.22197 -0.98284,-0.41065 -1.85076,-1.30599 -2.47641,-2.88737 -0.53869,-1.36033 -0.55609,-2.48364 -0.20627,-3.41261 0.14555,-0.38658 0.34584,-0.7128 0.57353,-0.9811 0.13084,-0.15225 0.23361,-0.24653 0.27753,-0.27895 z m -15.45827,-1.65897 a 3.41,3.41 45 0 0 -0.53659,0.0984 c -1.81588,0.46152 -3.43843,1.81918 -4.20972,4.42421 -0.0957,0.3227 -0.17666,0.66248 -0.24158,1.01751 -0.55501,3.0246 0.23612,5.1579 1.7027,6.46769 0.26587,0.23805 0.49479,0.39381 0.6521,0.47665 l 0.70728,-1.33875 a 2.144,2.144 0 0 1 -0.35248,-0.26674 c -1.08178,-0.96737 -1.67763,-2.57366 -1.22065,-5.06479 0.0546,-0.30199 0.12392,-0.58913 0.20302,-0.85997 0.60801,-2.05159 1.80116,-3.04955 3.13253,-3.3871 0.14846,-0.0382 0.24871,-0.0541 0.28666,-0.0573 l -0.1228,-1.50898 z"
         id="path46"
         style="opacity:0.327;fill:#000000;fill-rule:nonzero" />
      <path
         d="m 186.52885,167.47044 a 3.683,3.683 0 0 0 -0.99219,-0.0874 c -1.77372,0.0552 -3.48311,1.0173 -4.73893,3.24571 -0.30834,0.54903 -0.54496,1.08596 -0.71163,1.61175 -0.62437,1.96969 -0.25701,3.54456 0.53862,4.62557 0.0653,0.0887 0.12016,0.15356 0.16105,0.19638 l 1.10413,-1.03331 -0.0472,-0.061 a 2.834,2.834 45 0 1 -0.45587,-1.03628 c -0.15094,-0.65025 -0.12477,-1.39128 0.14224,-2.23318 0.13477,-0.42389 0.32904,-0.86582 0.58727,-1.3259 0.98598,-1.7497 2.20661,-2.4361 3.46849,-2.47621 0.28118,-0.008 0.4818,0.0179 0.56824,0.0399 z m -22.32404,-11.00801 c -0.26026,-0.21045 -0.69881,-0.4303 -1.30814,-0.53895 -1.35622,-0.24384 -2.93162,0.20988 -4.65483,1.58482 -1.22718,0.97868 -2.05678,2.00645 -2.54609,3.04584 -0.49911,1.05931 -0.5801,1.93368 -0.47433,2.49469 l 1.48806,-0.27929 c -0.008,-0.0365 -0.0143,-0.1589 0.004,-0.35441 0.0322,-0.35914 0.14091,-0.76806 0.35071,-1.21485 0.38823,-0.8248 1.07165,-1.66953 2.12206,-2.50779 1.39559,-1.11353 2.53571,-1.44226 3.44433,-1.27982 0.33704,0.0609 0.54908,0.16787 0.62395,0.22773 z"
         id="path48"
         style="opacity:0.327;fill:#000000;fill-rule:nonzero" />
      <path
         d="m 163.42816,154.4245 c -0.31768,-0.2524 -0.85544,-0.53955 -1.5894,-0.71219 -1.52102,-0.3578 -3.20439,-0.0177 -4.93219,1.26341 -1.39967,1.03982 -2.23327,2.2113 -2.59035,3.43973 -0.29807,1.03056 -0.22615,1.88365 -0.0366,2.43184 l 1.42986,-0.49525 a 1.8,1.8 0 0 1 -0.0612,-0.37067 3.15,3.15 0 0 1 0.12168,-1.14291 c 0.26232,-0.90396 0.90063,-1.79945 2.03988,-2.6453 1.36716,-1.01574 2.59477,-1.26301 3.68421,-1.00758 0.29074,0.0697 0.54914,0.17011 0.76905,0.28763 0.12333,0.0658 0.20068,0.11754 0.22577,0.13705 z m 91.55019,-24.08661 c -0.0148,-0.0748 -0.0449,-0.18676 -0.0933,-0.33094 -0.45407,-1.33963 -1.48575,-2.61111 -3.30882,-3.34742 -0.77232,-0.3108 -1.65172,-0.5035 -2.64365,-0.56276 -2.90054,-0.17473 -4.86726,0.76567 -6.01759,2.27657 -0.27115,0.35483 -0.43525,0.6618 -0.51498,0.87182 l 1.41378,0.54167 c 0.0311,-0.0822 0.12763,-0.26266 0.30433,-0.49479 0.85107,-1.11734 2.33685,-1.82693 4.72573,-1.68367 0.83064,0.0499 1.54944,0.20678 2.16766,0.45568 1.36977,0.55262 2.11713,1.47468 2.4394,2.42797 0.028,0.0825 0.0423,0.13494 0.0458,0.15006 z m -57.56523,20.9766 c 0.43047,0.0939 1.15297,0.16617 2.09026,0.1163 2.15027,-0.11381 4.34519,-0.83804 6.38716,-2.39945 1.49333,-1.14059 2.5639,-2.335 3.27007,-3.53952 0.7027,-1.2004 0.94106,-2.18563 0.9362,-2.80823 l -1.51313,0.0106 a 2.417,2.417 0 0 1 -0.0804,0.48784 5.78,5.78 0 0 1 -0.64937,1.54353 c -0.60401,1.03241 -1.54275,2.07858 -2.88198,3.10212 -1.78479,1.36351 -3.68729,1.99228 -5.54942,2.08992 a 8.358,8.358 45 0 1 -1.26214,-0.0243 c -0.21527,-0.0214 -0.36124,-0.0446 -0.42511,-0.0582 l -0.32304,1.47988 z"
         id="path50"
         style="opacity:0.327;fill:#000000;fill-rule:nonzero" />
      <path
         d="m 186.6128,159.69601 c 0.43047,0.0939 1.15297,0.16617 2.09027,0.1163 2.15073,-0.11293 4.34518,-0.83804 6.38762,-2.39857 1.49333,-1.14058 2.5639,-2.335 3.27007,-3.53951 0.7027,-1.20041 0.94106,-2.18564 0.93573,-2.80912 l -1.51266,0.0115 a 2.417,2.417 0 0 1 -0.0808,0.48696 5.78,5.78 0 0 1 -0.64937,1.54353 c -0.60401,1.03241 -1.54227,2.07946 -2.88151,3.103 -1.78479,1.36351 -3.68776,1.9914 -5.54941,2.08993 a 8.358,8.358 45 0 1 -1.26215,-0.0243 c -0.21527,-0.0215 -0.36171,-0.0455 -0.42557,-0.0591 l -0.32305,1.47988 z m 22.19363,-16.19946 c 0.43047,0.0939 1.15297,0.16616 2.09115,0.11582 2.14985,-0.11245 4.34518,-0.83803 6.38763,-2.39857 1.49332,-1.14058 2.56301,-2.33452 3.26918,-3.53904 0.7027,-1.20041 0.94106,-2.18563 0.93573,-2.80911 l -1.51266,0.0115 a 2.417,2.417 0 0 1 -0.0808,0.48695 5.78,5.78 0 0 1 -0.64848,1.54307 c -0.60578,1.03335 -1.54316,2.07993 -2.8824,3.10347 -1.78479,1.36351 -3.68776,1.99139 -5.54941,2.08992 a 8.358,8.358 45 0 1 -1.26215,-0.0243 c -0.21527,-0.0214 -0.36171,-0.0455 -0.42557,-0.0591 l -0.32305,1.47989 z"
         id="path52"
         style="opacity:0.327;fill:#000000;fill-rule:nonzero" />
      <ellipse
         cx="76.477585"
         cy="223.78961"
         rx="1.813"
         ry="1.165"
         id="ellipse56"
         style="opacity:0.332;fill:#000000"
         transform="rotate(-28)" />
      <ellipse
         transform="rotate(10)"
         cx="193.16367"
         cy="131.43498"
         rx="1.813"
         ry="1.165"
         id="ellipse58"
         style="opacity:0.332;fill:#000000" />
      <ellipse
         transform="rotate(44)"
         cx="228.84717"
         cy="2.582469"
         rx="1.813"
         ry="1.165"
         id="ellipse60"
         style="opacity:0.332;fill:#000000" />
      <ellipse
         transform="rotate(-59)"
         cx="-44.287071"
         cy="231.75183"
         rx="1.813"
         ry="1.165"
         id="ellipse62"
         style="opacity:0.332;fill:#000000" />
      <ellipse
         transform="rotate(-71)"
         cx="-86.365555"
         cy="217.6682"
         rx="1.813"
         ry="1.165"
         id="ellipse64"
         style="opacity:0.332;fill:#000000" />
      <ellipse
         transform="rotate(-71)"
         cx="-81.430847"
         cy="217.31334"
         rx="1.813"
         ry="1.165"
         id="ellipse66"
         style="opacity:0.332;fill:#000000" />
      <ellipse
         fill="#ffffff"
         transform="rotate(-39)"
         cx="102.50528"
         cy="182.16747"
         rx="10.263"
         ry="14.603"
         id="ellipse74"
         style="opacity:0.888617" />
      <ellipse
         fill="#000000"
         transform="rotate(-39)"
         cx="102.50528"
         cy="182.16747"
         rx="6.6259999"
         ry="9.434"
         id="ellipse76"
         style="opacity:0.888617" />
      <ellipse
         fill="#ffffff"
         transform="rotate(-39)"
         cx="48.024895"
         cy="179.21387"
         rx="10.263"
         ry="14.603"
         id="ellipse78"
         style="opacity:0.888617" />
      <ellipse
         fill="#000000"
         transform="rotate(-39)"
         cx="48.074123"
         cy="178.95959"
         rx="6.6259999"
         ry="9.434"
         id="ellipse80"
         style="opacity:0.888617" />
      <ellipse
         fill="#000000"
         cx="109.00916"
         cy="175.41562"
         rx="2.598"
         ry="2.585"
         id="ellipse82"
         style="opacity:0.888617"
         transform="rotate(-28)" />
      <path
         d="m 178.10909,112.61989 a 6.628,6.628 0 0 0 6.2714,0.0156 6.625,6.625 0 0 0 3.43524,-6.92878 0.774,0.774 0 0 0 -0.89585,-0.63472 0.78,0.78 0 0 0 -0.64054,0.89554 5.067,5.067 0 0 1 -2.62789,5.29898 5.067,5.067 0 0 1 -4.79639,-0.0127 0.782,0.782 0 0 0 -1.0564,0.31367 0.773,0.773 0 0 0 0.31043,1.05245 z"
         fill="#000000"
         fill-rule="nonzero"
         id="path84"
         style="opacity:0.888617" />
      <path
         d="m 193.85445,120.20358 c 23.74737,-18.55344 41.75372,-35.183499 22.70808,-59.560496 -11.20446,-14.34154 -39.53845,-10.927972 -63.28405,7.624531 -23.74738,18.553442 -33.91435,45.217655 -22.70808,59.560495 17.44565,22.33062 39.53844,10.92797 63.28405,-7.62453 z"
         fill="#dda032"
         opacity="0.686012"
         id="path86" />
      <path
         d="m 199.78258,59.011853 c 14.33445,4.210198 19.35204,20.482264 16.73988,28.694907 -3.5976,11.305282 -9.29191,18.98673 -33.39979,36.82807 -0.57515,-18.76327 5.92044,-55.908732 16.65991,-65.522977 z"
         fill="#ffffff"
         opacity="0.137736"
         id="path88" />
      <path
         d="m 150.78521,76.565409 c 4.42953,-4.971459 9.8773,-7.851099 9.8773,-7.851099 0,0 -11.64619,31.61859 -6.54337,68.31201 -3.36296,0.61704 -7.39031,-1.16141 -7.39031,-1.16141 0,0 -5.96473,-22.81192 4.05638,-59.299501 z"
         fill="#ffffff"
         opacity="0.48163"
         id="path90" />
      <path
         d="m 138.00124,91.31907 c 3.5638,-6.065025 8.70635,-11.895818 8.70635,-11.895818 0,0 -9.69421,23.553108 -2.78125,54.877228 -2.81346,-1.44873 -5.12692,-4.20643 -5.12692,-4.20643 0,0 -4.87113,-22.587 -0.79729,-38.775449 z"
         fill="#ffffff"
         opacity="0.48163"
         id="path92" />
    </g>
  </g>
</svg>
